<svg width="19" height="26" viewBox="0 0 19 26" fill="none" xmlns="http://www.w3.org/2000/svg">
<path d="M18.981 22.1913L17.6673 5.85472C17.6293 5.3406 17.2295 4.9314 16.7535 4.9314H14.3166C14.1358 2.1824 12.0225 0 9.5 0C6.97745 0 4.85471 2.1824 4.67385 4.9314H2.23697C1.76102 4.9314 1.36122 5.3301 1.32315 5.85472L0 22.2123V22.2333C0 22.2542 0 22.2752 0 22.3067C0 24.3422 1.67535 26 3.74098 26H15.259C17.3246 26 19 24.3422 19 22.3067C18.9905 22.2752 18.9905 22.2332 18.981 22.1913ZM9.49048 2.02502C11.004 2.02502 12.2796 3.30508 12.4604 4.9314H6.52054C6.7014 3.29459 7.97695 2.02502 9.49048 2.02502ZM15.2495 23.9645H3.73146C2.70341 23.9645 1.85621 23.2405 1.83717 22.3487L3.07465 6.96691H4.65481V8.78208C4.65481 9.33817 5.06413 9.79984 5.57816 9.79984C6.08266 9.79984 6.5015 9.34867 6.5015 8.78208V6.96691H12.489V8.78208C12.489 9.33817 12.8983 9.79984 13.4123 9.79984C13.9264 9.79984 14.3357 9.34867 14.3357 8.78208V6.96691H15.9158L17.1533 22.3487C17.1247 23.2405 16.2776 23.9645 15.2495 23.9645Z" fill="#262626"/>
</svg>
