<svg width="20" height="22" viewBox="0 0 20 22" fill="none" xmlns="http://www.w3.org/2000/svg">
<path d="M16.6991 0C16.6792 0 16.6593 0 16.6493 0H3.33186C1.49188 0 0 1.57648 0 3.5208V20.2315C0 20.9882 0.845397 21.3875 1.38247 20.8936L7.49917 15.2393L13.6159 20.8936C14.1529 21.3875 14.9983 20.9882 14.9983 20.2315V10.5519H19.1656C19.6232 10.5519 20.0011 10.163 20.0011 9.66906V3.5208C19.9812 1.58699 18.5192 0.0315295 16.6991 0ZM13.3175 18.2976L8.03625 13.4211C7.71798 13.1268 7.25052 13.1268 6.9422 13.4211L1.66096 18.2976V3.5208C1.66096 2.54338 2.4069 1.75514 3.33186 1.75514H13.7651C13.7551 1.77616 13.7452 1.79718 13.7253 1.8182C13.7253 1.82871 13.7153 1.82871 13.7153 1.83922C13.6954 1.88126 13.6755 1.9233 13.6556 1.97585C13.6556 1.98636 13.6457 1.99687 13.6457 2.00738C13.6258 2.04942 13.6059 2.09146 13.596 2.1335C13.596 2.14401 13.586 2.14401 13.586 2.15452C13.5661 2.19656 13.5462 2.24911 13.5363 2.29115C13.5363 2.30166 13.5264 2.31217 13.5264 2.32268C13.5164 2.36472 13.4965 2.40675 13.4866 2.44879C13.4866 2.4593 13.4866 2.4593 13.4766 2.46981C13.4667 2.52236 13.4468 2.5644 13.4368 2.61695C13.4368 2.62746 13.4269 2.63797 13.4269 2.64848C13.4169 2.69052 13.407 2.74307 13.3971 2.78511V2.79562C13.3871 2.84817 13.3772 2.90072 13.3672 2.95327C13.3672 2.96378 13.3672 2.97429 13.3573 2.99531C13.3473 3.04786 13.3473 3.08989 13.3374 3.14244C13.3374 3.14244 13.3374 3.14244 13.3374 3.15295C13.3274 3.2055 13.3274 3.25805 13.3274 3.3106C13.3274 3.32111 13.3274 3.33162 13.3274 3.35264C13.3274 3.40519 13.3274 3.45774 13.3274 3.51029V9.66906L13.3175 18.2976ZM18.3103 8.79674H14.9884V3.5208C14.9884 2.55389 15.7343 1.76565 16.6493 1.76565C17.5644 1.76565 18.3103 2.55389 18.3103 3.5208V8.79674Z" fill="#7A7A7A"/>
</svg>
