<svg width="16" height="21" viewBox="0 0 16 21" fill="none" xmlns="http://www.w3.org/2000/svg">
<path d="M8 0C3.59233 0 0 3.59649 0 8.00926C0 10.8541 0.855701 11.9856 4.95661 17.4005C5.667 18.338 6.4662 19.3968 7.38648 20.6172C7.53179 20.8111 7.75782 20.9243 8 20.9243C8.24218 20.9243 8.46821 20.8111 8.61352 20.6172C9.54188 19.3725 10.3653 18.2896 11.0272 17.4086C15.1443 11.9775 16 10.846 16 8.00118C16 3.59649 12.4157 0 8 0ZM8 1.53558C11.5681 1.53558 14.4743 4.4451 14.4743 8.01734C14.4743 10.345 13.7639 11.2825 9.81635 16.5034C9.27548 17.2147 8.6781 18.0148 8.00807 18.8957C7.33804 18.0067 6.73259 17.2066 6.1998 16.4954L6.19173 16.4792C2.25227 11.2825 1.54188 10.345 1.54188 8.00926C1.5338 4.43702 4.43189 1.53558 8 1.53558Z" fill="#7A7A7A"/>
<path d="M8 12.3978C10.4137 12.3978 12.3835 10.4258 12.3835 8.00925C12.3835 5.59273 10.4137 3.62073 8 3.62073C5.58627 3.62073 3.61655 5.59273 3.61655 8.00925C3.61655 10.4258 5.58627 12.3978 8 12.3978ZM8 5.15631C9.57417 5.15631 10.8496 6.44134 10.8496 8.00925C10.8496 9.57715 9.56609 10.8622 8 10.8622C6.42583 10.8622 5.15035 9.57715 5.15035 8.00925C5.15035 6.44134 6.42583 5.15631 8 5.15631Z" fill="#7A7A7A"/>
</svg>
