<svg width="275" height="39" viewBox="0 0 275 39" fill="none" xmlns="http://www.w3.org/2000/svg">
<path d="M38.8 0.482697L28.8 38.6967H23L19.2 26.0552L15.5 38.6967H9.7L0 0.482697H6.6L12.8 25.4762L16.4 13.2207H22.2L26 25.2832L32 0.482697H38.8Z" fill="#262626"/>
<path d="M69 38.6974H62.2L59.5 30.0124H48.5L45.5 38.6009H38.7L41.7 30.0124H40L36.2 23.6434H43.8L51.2 0.772919H57L69 38.6974ZM57.5 23.5469L53.9 12.8354L50.3 23.5469H57.5Z" fill="#262626"/>
<path d="M104.6 38.6969H97L88.2 24.1254L79.6 38.6969H72L84.5 17.7564C83.3 15.6334 81.3 12.3524 78.5 7.81694C75.7 3.28144 74.3 0.675944 74.1 0.482944H81.7L88.5 11.5804C89.1 10.8084 90.1 9.07144 91.7 6.36944C93.3 3.66744 94.5 1.73744 95.3 0.386444H102.9L92.3 17.7564L104.6 38.6969Z" fill="#262626"/>
<path d="M138.6 38.6975H131.8L129 30.109H118.1L115.1 38.6975H108.3L111.3 30.109H109.5L105.7 23.74H113.3L120.7 0.869507H126.5L138.6 38.6975ZM127.1 23.547L123.5 12.8355L119.9 23.547H127.1Z" fill="#262626"/>
<path d="M177.1 25.9585C177.1 29.4325 175.7 32.3275 172.9 34.74C170.1 37.249 166.7 38.6 163 38.6V32.231C165.2 32.231 167 31.652 168.6 30.301C170.2 28.95 170.8 27.599 170.8 25.862C170.8 24.897 170.4 24.125 169.8 23.16C169 22.195 168.2 21.423 167.2 20.458C166.2 19.493 165.2 18.528 164.2 17.563C163.2 16.598 162.4 15.44 161.6 14.089C160.8 12.738 160.6 11.387 160.6 9.84299C160.6 7.141 161.8 4.825 164 2.895C166.2 0.964999 169 0 172 0V6.369C170.6 6.369 169.4 6.755 168.6 7.334C167.6 8.10599 167.2 8.87799 167.2 9.84299C167.2 10.615 167.6 11.58 168.2 12.352C169 13.124 169.8 14.089 170.8 14.861C171.8 15.633 172.8 16.598 173.8 17.563C174.8 18.528 175.6 19.686 176.4 21.037C176.8 22.774 177.1 24.318 177.1 25.9585Z" fill="#262626"/>
<path d="M207 38.5035H200.4V14.861H190.9V38.5035H184.3V14.861H181.7L177.9 8.49202H184.3V0.0965271H190.9V8.58852H200.4V0.0965271H207V38.5035Z" fill="#262626"/>
<path d="M250.9 19.4932C250.9 24.7042 248.9 29.2397 245.1 32.9067C241.3 36.5737 236.5 38.5037 231.2 38.5037C225.9 38.5037 221.1 36.5737 217.3 32.9067C213.5 29.0467 211.5 24.6077 211.5 19.4932C211.5 14.3787 213.5 9.93969 217.3 6.07969C221.3 2.2197 225.9 0.482697 231.2 0.482697C236.5 0.482697 241.1 2.4127 245.1 6.07969C248.9 9.84319 250.9 14.2822 250.9 19.4932ZM240.6 28.4677C243.2 25.9587 244.6 22.8707 244.6 19.4932C244.6 16.0192 243.2 12.9312 240.6 10.5187C238 8.10619 234.8 6.65869 231.3 6.65869C227.8 6.65869 224.5 8.00969 222 10.5187C219.4 13.0277 218 16.1157 218 19.4932C218 22.8707 219.4 26.0552 222 28.4677C224.6 30.9767 227.8 32.3277 231.3 32.3277C234.8 32.3277 238 30.9767 240.6 28.4677Z" fill="#262626"/>
<path d="M275 15.2472C275 18.9142 273.8 22.1952 271.2 24.9937C268.6 27.8887 265.4 29.4327 261.9 30.0117V38.6967H255.3V0.482697H259.5C263.7 0.482697 267.3 2.0267 270.4 4.92169C273.4 7.81669 275 11.1942 275 15.2472ZM268.6 15.2472C268.6 13.1242 268 11.3872 266.6 9.84319C265.4 8.29919 263.6 7.33419 261.6 6.75519V23.4497C263.6 23.0637 265.2 21.9057 266.4 20.3617C268 19.1072 268.6 17.1772 268.6 15.2472Z" fill="#262626"/>
</svg>
