<svg width="17" height="19" viewBox="0 0 17 19" fill="none" xmlns="http://www.w3.org/2000/svg">
<path d="M16.3718 13.4254L14.3216 11.1406C13.9208 10.6768 13.4352 10.4277 12.9188 10.4277C12.41 10.4277 11.9245 10.6682 11.5082 11.132L10.4215 12.3431C10.3598 12.3088 10.3058 12.2744 10.2519 12.2486C10.1286 12.1799 10.0052 12.1112 9.89733 12.0339C8.81054 11.2609 7.81624 10.2559 6.86819 8.95886C6.44427 8.3576 6.15138 7.85081 5.93556 7.36121C6.21304 7.07776 6.4751 6.77712 6.71404 6.50226C6.81424 6.38201 6.92215 6.27034 7.02235 6.15009C7.44627 5.67767 7.6698 5.12794 7.6698 4.56103C7.6698 3.99412 7.44627 3.44439 7.02235 2.97197L6.00493 1.83816C5.88931 1.70931 5.7814 1.58906 5.6735 1.46022L5.65808 1.44304C5.43456 1.18535 5.19562 0.910488 4.95668 0.669982C4.55588 0.231917 4.07029 0 3.56158 0C3.06058 0 2.57499 0.231917 2.15107 0.678571L0.879297 2.09584C0.370588 2.66275 0.0776947 3.3585 0.016033 4.15732C-0.0533365 5.11935 0.100818 6.12432 0.509327 7.33544C1.11824 9.18219 2.03545 10.8915 3.39972 12.7125C5.04917 14.9114 7.03776 16.6465 9.31925 17.8834C10.1979 18.3472 11.3772 18.8969 12.6798 18.9914H12.6875C12.7646 18.9914 12.8417 19 12.9265 19C13.8591 19 14.6067 18.6392 15.2157 17.9005C15.2234 17.892 15.2388 17.8748 15.2542 17.8576C15.4238 17.6257 15.6242 17.4109 15.84 17.1876L15.8862 17.1361C16.0095 17.0072 16.1945 16.8011 16.3795 16.5949C17.2119 15.6243 17.2042 14.3531 16.3718 13.4254ZM5.73516 5.41998L5.66579 5.50588C5.3729 5.83228 5.10313 6.1415 4.80252 6.43354L4.77169 6.4679C4.33235 6.9575 4.48651 7.4557 4.53275 7.6189C4.53275 7.62749 4.54046 7.64467 4.54046 7.65326L4.54817 7.67043C4.82565 8.41772 5.21103 9.10488 5.78911 9.92089C6.82965 11.3553 7.93186 12.472 9.14968 13.3309C9.28842 13.4254 9.41945 13.5027 9.55048 13.58L9.62756 13.623C9.75088 13.6917 9.8742 13.7604 9.98211 13.8377L10.0129 13.8549C10.0206 13.8635 10.0361 13.8721 10.0438 13.8721C10.1902 13.958 10.3444 14.0009 10.4985 14.0009C10.7529 14.0009 10.9918 13.8807 11.1999 13.6573L12.4794 12.2315C12.6259 12.0683 12.78 11.9824 12.9188 11.9824C13.096 11.9824 13.2502 12.137 13.3273 12.2229L15.4006 14.5249C15.7012 14.8684 15.7012 15.1777 15.3852 15.547C15.2388 15.7188 15.0846 15.8906 14.9382 16.0452L14.8996 16.0882C14.6684 16.3373 14.4295 16.5949 14.2059 16.887C13.8591 17.2993 13.4737 17.4797 12.9419 17.4797C12.8879 17.4797 12.8263 17.4797 12.78 17.4711C11.7009 17.3938 10.6912 16.9213 9.92816 16.5176C7.83166 15.3838 5.98951 13.7776 4.47109 11.7505C3.21474 10.0669 2.36689 8.49503 1.81193 6.82007C1.4805 5.82369 1.34176 5.01627 1.39571 4.29476C1.43425 3.8481 1.5807 3.49593 1.85818 3.18671L3.12995 1.76085C3.2764 1.60624 3.43055 1.52034 3.56929 1.52034C3.74657 1.52034 3.89301 1.64919 3.99321 1.76085L4.00092 1.76944C4.19362 1.967 4.3786 2.18174 4.579 2.40506L4.67149 2.50814C4.73316 2.57685 4.78711 2.64557 4.84877 2.71429C4.91043 2.783 4.96439 2.85172 5.02605 2.92043L6.04347 4.05425C6.20533 4.23463 6.28241 4.40642 6.28241 4.55244C6.28241 4.70705 6.19762 4.87025 6.04347 5.05063C5.98951 5.11076 5.93556 5.17089 5.8816 5.23101C5.84307 5.29973 5.78911 5.35986 5.73516 5.41998Z" fill="#7A7A7A"/>
</svg>
