<svg width="19" height="25" viewBox="0 0 19 25" fill="none" xmlns="http://www.w3.org/2000/svg">
<path d="M5.83923 10.229C5.12664 10.229 4.55261 10.803 4.55261 11.5156C4.55261 12.2281 5.12664 12.8021 5.83923 12.8021C6.55182 12.8021 7.12585 12.2281 7.12585 11.5156C7.12585 10.803 6.55182 10.229 5.83923 10.229Z" fill="#7A7A7A"/>
<path d="M12.6682 10.229C11.9556 10.229 11.3815 10.803 11.3815 11.5156C11.3815 12.2281 11.9556 12.8021 12.6682 12.8021C13.3807 12.8021 13.9548 12.2281 13.9548 11.5156C13.9548 10.803 13.3708 10.229 12.6682 10.229Z" fill="#7A7A7A"/>
<path d="M18.4975 11.5156C18.4975 10.4468 17.8047 9.53633 16.8447 9.21964L16.9338 8.12115C17.0525 6.73565 16.3597 5.42933 15.1919 4.73659C15.2315 4.07353 15.0237 3.40058 14.5783 2.787C13.8558 1.78747 12.6187 1.13431 11.4211 1.13431H4.67138L4.3052 0.392082C4.19633 0.184259 3.99839 0.035813 3.77076 0.00612392C3.54313 -0.0235652 3.3056 0.0556057 3.14725 0.223844L2.60291 0.778041C2.38518 0.995761 2.20703 1.25307 2.06847 1.53016C1.70228 2.2625 1.63301 3.09379 1.89033 3.86571C2.05858 4.37042 2.34559 4.81576 2.72168 5.16213C1.91012 5.89446 1.46476 6.97317 1.56373 8.11125L1.6528 9.21964C0.69279 9.54622 0 10.4468 0 11.5156C0 12.6042 0.722481 13.5246 1.70228 13.8314V17.5326C1.70228 18.5519 1.95961 19.5614 2.45446 20.452L2.66229 20.8281C3.99839 23.2428 6.55182 24.7372 9.31308 24.7372C12.3119 24.7372 15.0434 22.9558 16.2608 20.2145C16.6072 19.4426 16.7754 18.6212 16.7754 17.7701V13.8314C17.775 13.5246 18.4975 12.6042 18.4975 11.5156ZM3.14725 16.2659L4.09736 17.7701C4.2854 18.0571 4.56252 18.2649 4.89902 18.3342C4.98809 18.354 5.08706 18.3639 5.17613 18.3639C5.41366 18.3639 5.65119 18.2946 5.85903 18.166C6.09655 18.0175 6.2747 17.7899 6.37367 17.5425L6.77945 16.4836C6.83883 16.3153 7.00708 16.2065 7.18522 16.2164H11.3024C11.4805 16.2164 11.6389 16.3252 11.6983 16.4935L12.104 17.5425C12.2228 17.8592 12.4702 18.1165 12.777 18.255C13.0838 18.3936 13.45 18.4035 13.7568 18.2847C14.0142 18.1858 14.2418 18.0076 14.3902 17.7701L15.3601 16.256V17.78C15.3601 18.4233 15.2315 19.0566 14.9643 19.6405C13.9746 21.8672 11.7576 23.3121 9.32298 23.3121C7.08625 23.3121 5.01778 22.0948 3.92911 20.1353L3.72127 19.7593C3.34519 19.0863 3.14725 18.3144 3.14725 17.5326V16.2659ZM15.5086 7.99249L15.4987 8.06177L13.6678 5.97364H14.3606C14.3902 5.97364 14.4199 5.97364 14.4496 5.96374C15.1622 6.37939 15.5779 7.1612 15.5086 7.99249ZM15.3601 13.574L13.3412 16.7409L13.0442 15.969C12.777 15.2564 12.0743 14.7715 11.3123 14.7715H9.50112L9.98608 10.8822L8.56091 10.7041L8.05616 14.7715H7.20502C6.42315 14.7616 5.73036 15.2267 5.45325 15.969L5.15634 16.7508L3.15714 13.5839V12.5052V10.526V10.0806L6.74976 5.98353H11.7873L15.3799 10.0806V10.526V12.5052V13.574H15.3601ZM4.80005 4.54856C4.54272 4.54856 4.2953 4.48918 4.06767 4.38032C3.68168 4.18239 3.39467 3.84592 3.25611 3.43027C3.11756 3.01462 3.15714 2.56928 3.34519 2.18333C3.38478 2.10415 3.42436 2.03488 3.47385 1.96561L3.58271 2.17343C3.70148 2.42084 3.9489 2.56928 4.22602 2.56928H11.431C12.1634 2.56928 12.9651 2.99483 13.4203 3.6183C13.549 3.79643 13.7469 4.13291 13.7667 4.53866H4.80005V4.54856ZM4.15674 5.90436C4.36458 5.94395 4.58231 5.97364 4.79015 5.97364H4.82974L2.99879 8.06177L2.98889 7.9826C2.91962 7.12161 3.37488 6.30022 4.15674 5.90436ZM1.71218 12.1886C1.54393 12.0104 1.44496 11.7729 1.44496 11.5057C1.44496 11.2385 1.54393 11.001 1.71218 10.8229V12.1886ZM16.7952 10.8328C16.9635 11.0109 17.0624 11.2484 17.0624 11.5156C17.0624 11.7828 16.9635 12.0203 16.7952 12.1985V10.8328Z" fill="#7A7A7A"/>
<path d="M9.2537 19.0467C9.91679 19.0467 10.57 18.9379 11.1836 18.73L11.3221 18.6806L10.8669 17.3248L10.7283 17.3742C9.77823 17.6909 8.71927 17.6909 7.76917 17.3742L7.63061 17.3248L7.17535 18.6905L7.31391 18.7399C7.93741 18.9478 8.59061 19.0467 9.2537 19.0467Z" fill="#7A7A7A"/>
</svg>
