<svg width="19" height="19" viewBox="0 0 19 19" fill="none" xmlns="http://www.w3.org/2000/svg">
<path d="M15.9702 7.75214C15.9702 5.67871 15.141 3.73681 13.6261 2.27458C12.1192 0.81235 10.1099 0 7.98112 0C5.84431 0 3.84305 0.804614 2.33613 2.27458C0.829207 3.73681 0 5.68645 0 7.75214C0 9.82557 0.829207 11.7675 2.33613 13.2297C3.84305 14.6919 5.85229 15.5043 7.98112 15.5043C9.65548 15.5043 11.2661 15.0014 12.6295 14.0498L12.9564 13.8177L17.4612 18.1889C17.6286 18.3514 17.8598 18.4442 18.099 18.4442C18.3382 18.4442 18.5694 18.3514 18.7369 18.1889C19.0877 17.8485 19.0877 17.2915 18.7369 16.951L14.2321 12.5798L14.4713 12.2626C15.452 10.9396 15.9702 9.37684 15.9702 7.75214ZM12.3504 11.9918C11.1863 13.1214 9.63156 13.7481 7.98112 13.7481C6.33068 13.7481 4.77591 13.1214 3.61183 11.9918C2.44776 10.8623 1.80193 9.35363 1.80193 7.75214C1.80193 6.15065 2.44776 4.642 3.61183 3.51245C4.77591 2.37516 6.33068 1.75622 7.98112 1.75622C9.63156 1.75622 11.1863 2.38289 12.3504 3.51245C13.5224 4.64974 14.1603 6.15065 14.1603 7.75214C14.1683 9.35363 13.5224 10.8623 12.3504 11.9918Z" fill="#262626"/>
</svg>
